<svg width="792" height="194" viewBox="0 0 792 194" fill="none" xmlns="http://www.w3.org/2000/svg">
<path d="M49.2821 96.8867C50.2678 96.8867 51.0345 97.7385 50.9807 98.7224C50.9417 99.4363 50.9219 100.155 50.9219 100.879C50.9219 122.377 68.3568 139.805 89.8638 139.805C111.371 139.805 128.806 122.377 128.806 100.879C128.806 100.155 128.786 99.4363 128.747 98.7224C128.693 97.7385 129.46 96.8867 130.445 96.8867H168.08C170.286 96.8867 172.074 98.6742 172.074 100.879V120.508C172.074 122.713 170.286 124.5 168.08 124.5H155.664C153.368 130.888 150.168 136.844 146.218 142.216L157.719 156.94C158.974 158.548 158.816 160.843 157.351 162.262L140.381 178.716C138.91 180.141 136.6 180.224 135.031 178.908L118.189 164.77C114.149 166.562 109.907 167.983 105.507 168.988V188.711C105.507 191.467 103.272 193.701 100.515 193.701H78.2145C75.4572 193.701 73.222 191.467 73.222 188.711V168.752C69.0604 167.736 65.0449 166.348 61.2129 164.624L44.1972 178.908C42.6288 180.224 40.318 180.141 38.8478 178.716L21.8774 162.262C20.4128 160.843 20.2542 158.548 21.5097 156.94L33.2676 141.885C29.4286 136.601 26.3123 130.757 24.0639 124.5H11.3144C9.1085 124.5 7.32031 122.713 7.32031 120.508V100.879C7.32031 98.6742 9.1085 96.8867 11.3144 96.8867H49.2821Z" fill="white"/>
<path fill-rule="evenodd" clip-rule="evenodd" d="M89.533 0C110.189 1.55217e-06 129.999 8.16709 144.605 22.7046C157.945 35.9822 165.946 53.5807 167.233 72.1951H172.409C176.086 72.1951 179.066 75.1741 179.066 78.849V86.501C179.066 87.9709 177.874 89.1626 176.403 89.1626H2.66269C1.19213 89.1626 5.09291e-08 87.9709 0 86.501V78.849C0 75.1741 2.98032 72.1951 6.65673 72.1951H11.8333C13.1198 53.5807 21.1207 35.9822 34.4609 22.7046C49.067 8.16709 68.877 -2.23683e-09 89.533 0ZM89.6995 15.9694C85.9311 15.9694 82.8763 19.023 82.8763 22.7897V51.0689C82.8763 54.8356 85.9311 57.8891 89.6995 57.8891C93.4678 57.8891 96.5226 54.8356 96.5226 51.0689V22.7897C96.5226 19.023 93.4678 15.9694 89.6995 15.9694Z" fill="white"/>
<path d="M230.418 103.098H219.95V47.6559H242.437C246.417 47.6559 249.881 48.3796 252.827 49.827C255.825 51.2228 258.152 53.1871 259.806 55.7201C261.512 58.2531 262.365 61.1997 262.365 64.5598C262.365 67.9199 261.512 70.8923 259.806 73.477C258.152 76.01 255.825 78.0002 252.827 79.4477C249.881 80.8434 246.417 81.5413 242.437 81.5413H229.642V72.7016H242.437C245.332 72.7016 247.606 71.9779 249.26 70.5305C250.914 69.083 251.742 67.0928 251.742 64.5598C251.742 62.0785 250.914 60.1141 249.26 58.6667C247.606 57.2193 245.332 56.4955 242.437 56.4955H230.418V103.098ZM298.877 104.338C294.586 104.338 290.632 103.615 287.013 102.167C283.446 100.72 280.319 98.7037 277.631 96.119C274.942 93.5343 272.875 90.4843 271.427 86.9691C269.98 83.4023 269.256 79.5252 269.256 75.338C269.256 71.1508 269.98 67.2996 271.427 63.7844C272.875 60.2692 274.942 57.2193 277.631 54.6346C280.319 52.0499 283.446 50.0338 287.013 48.5864C290.632 47.1389 294.586 46.4152 298.877 46.4152C303.167 46.4152 307.096 47.1389 310.663 48.5864C314.282 50.0338 317.435 52.0499 320.123 54.6346C322.811 57.2193 324.879 60.2692 326.326 63.7844C327.774 67.2996 328.497 71.1508 328.497 75.338C328.497 79.5252 327.774 83.4023 326.326 86.9691C324.879 90.4843 322.811 93.5343 320.123 96.119C317.435 98.7037 314.282 100.72 310.663 102.167C307.096 103.615 303.167 104.338 298.877 104.338ZM298.877 95.1109C302.547 95.1109 305.778 94.258 308.569 92.5521C311.361 90.8462 313.532 88.52 315.083 85.5734C316.685 82.5751 317.487 79.1633 317.487 75.338C317.487 71.5126 316.685 68.1267 315.083 65.1801C313.532 62.2336 311.361 59.9073 308.569 58.2014C305.778 56.4955 302.547 55.6426 298.877 55.6426C295.258 55.6426 292.027 56.4955 289.184 58.2014C286.393 59.9073 284.196 62.2336 282.593 65.1801C281.042 68.1267 280.267 71.5126 280.267 75.338C280.267 79.1633 281.042 82.5751 282.593 85.5734C284.196 88.52 286.393 90.8462 289.184 92.5521C292.027 94.258 295.258 95.1109 298.877 95.1109ZM339.063 103.098V47.6559H349.531V95.1885L348.601 94.258H362.791C365.634 94.258 367.882 93.5601 369.537 92.1644C371.191 90.7169 372.018 88.7526 372.018 86.2713C372.018 83.8417 371.191 81.9548 369.537 80.6108C367.882 79.2667 365.634 78.5947 362.791 78.5947H344.103V69.755H362.713C366.745 69.755 370.234 70.4271 373.181 71.7711C376.179 73.1151 378.505 75.0278 380.16 77.5091C381.814 79.9904 382.641 82.9112 382.641 86.2713C382.641 89.5797 381.814 92.5004 380.16 95.0334C378.505 97.5664 376.179 99.5566 373.181 101.004C370.183 102.4 366.693 103.098 362.713 103.098H339.063ZM344.413 56.5731V47.6559H378.299V56.5731H344.413ZM418.444 104.338C414.154 104.338 410.199 103.615 406.581 102.167C403.014 100.72 399.886 98.7037 397.198 96.119C394.51 93.5343 392.442 90.4843 390.995 86.9691C389.547 83.4023 388.824 79.5252 388.824 75.338C388.824 71.1508 389.547 67.2996 390.995 63.7844C392.442 60.2692 394.51 57.2193 397.198 54.6346C399.886 52.0499 403.014 50.0338 406.581 48.5864C410.199 47.1389 414.154 46.4152 418.444 46.4152C422.735 46.4152 426.664 47.1389 430.231 48.5864C433.849 50.0338 437.002 52.0499 439.691 54.6346C442.379 57.2193 444.446 60.2692 445.894 63.7844C447.341 67.2996 448.065 71.1508 448.065 75.338C448.065 79.5252 447.341 83.4023 445.894 86.9691C444.446 90.4843 442.379 93.5343 439.691 96.119C437.002 98.7037 433.849 100.72 430.231 102.167C426.664 103.615 422.735 104.338 418.444 104.338ZM418.444 95.1109C422.115 95.1109 425.345 94.258 428.137 92.5521C430.928 90.8462 433.1 88.52 434.65 85.5734C436.253 82.5751 437.054 79.1633 437.054 75.338C437.054 71.5126 436.253 68.1267 434.65 65.1801C433.1 62.2336 430.928 59.9073 428.137 58.2014C425.345 56.4955 422.115 55.6426 418.444 55.6426C414.826 55.6426 411.595 56.4955 408.752 58.2014C405.96 59.9073 403.763 62.2336 402.161 65.1801C400.61 68.1267 399.835 71.5126 399.835 75.338C399.835 79.1633 400.61 82.5751 402.161 85.5734C403.763 88.52 405.96 90.8462 408.752 92.5521C411.595 94.258 414.826 95.1109 418.444 95.1109ZM492.671 97.127H484.917L463.283 51.9206L468.711 51.8431V103.098H458.631V47.6559H470.727L490.965 90.1483H486.7L506.939 47.6559H518.88V103.098H508.644V51.8431L514.305 51.9206L492.671 97.127ZM571.78 90.9237H538.902V82.0841H571.78V90.9237ZM583.101 103.098H571.857L553.713 55.0223H556.814L538.67 103.098H527.814L549.681 47.6559H561.234L583.101 103.098ZM630.071 86.9691L636.972 93.9478C634.543 97.0495 631.338 99.5566 627.357 101.469C623.429 103.382 619.112 104.338 614.408 104.338C610.117 104.338 606.189 103.64 602.622 102.245C599.055 100.797 595.953 98.7812 593.317 96.1965C590.732 93.5601 588.716 90.4843 587.269 86.9691C585.873 83.4539 585.175 79.5769 585.175 75.338C585.175 71.2025 585.899 67.3771 587.346 63.8619C588.845 60.295 590.913 57.2193 593.549 54.6346C596.186 51.9982 599.287 49.9821 602.854 48.5864C606.473 47.1389 610.402 46.4152 614.641 46.4152C619.345 46.4152 623.635 47.3716 627.512 49.2842C631.389 51.1969 634.543 53.7041 636.972 56.8057L630.071 63.7844C628.365 61.3031 626.168 59.3387 623.48 57.8913C620.844 56.3921 617.897 55.6426 614.641 55.6426C611.125 55.6426 607.972 56.4955 605.181 58.2014C602.441 59.9073 600.27 62.2336 598.667 65.1801C597.065 68.1267 596.263 71.5126 596.263 75.338C596.263 79.1633 597.065 82.5751 598.667 85.5734C600.27 88.52 602.441 90.8462 605.181 92.5521C607.972 94.258 611.125 95.1109 614.641 95.1109C617.897 95.1109 620.844 94.3872 623.48 92.9398C626.168 91.4407 628.365 89.4504 630.071 86.9691ZM669.924 103.098H659.456V55.7977H669.924V103.098ZM687.293 56.5731H642.086V47.6559H687.293V56.5731ZM735.557 103.098H696.554V47.6559H735.557V56.4955H707.022V94.258H735.557V103.098ZM734.084 79.4477H706.247V70.608H734.084V79.4477ZM756.167 103.098H745.699V47.6559H768.186C772.166 47.6559 775.629 48.3796 778.576 49.827C781.574 51.2228 783.901 53.1871 785.555 55.7201C787.261 58.2531 788.114 61.1997 788.114 64.5598C788.114 67.9199 787.261 70.8923 785.555 73.477C783.901 76.01 781.574 78.0002 778.576 79.4477C775.629 80.8434 772.166 81.5413 768.186 81.5413H755.391V72.7016H768.186C771.08 72.7016 773.355 71.9779 775.009 70.5305C776.663 69.083 777.49 67.0928 777.49 64.5598C777.49 62.0785 776.663 60.1141 775.009 58.6667C773.355 57.2193 771.08 56.4955 768.186 56.4955H756.167V103.098Z" fill="white"/>
<path d="M215.955 160.742V139.709H219.348V148.929H229.884V139.709H233.277V160.742H229.884V151.922H219.348V160.742H215.955ZM241.273 151.483C241.353 152.414 241.539 153.279 241.832 154.077C242.151 154.849 242.577 155.527 243.109 156.113C243.641 156.698 244.293 157.164 245.065 157.509C245.863 157.829 246.781 157.988 247.818 157.988C248.324 157.988 248.843 157.948 249.375 157.869C249.934 157.762 250.453 157.603 250.931 157.39C251.41 157.15 251.836 156.844 252.209 156.472C252.581 156.099 252.86 155.647 253.047 155.115H256.519C256.28 156.126 255.867 157.004 255.282 157.749C254.723 158.494 254.045 159.106 253.246 159.585C252.475 160.064 251.61 160.423 250.652 160.662C249.694 160.875 248.723 160.982 247.739 160.982C246.062 160.982 244.599 160.716 243.348 160.183C242.124 159.651 241.1 158.92 240.275 157.988C239.45 157.03 238.839 155.9 238.439 154.596C238.04 153.266 237.841 151.815 237.841 150.246C237.841 148.676 238.054 147.239 238.479 145.935C238.932 144.605 239.57 143.461 240.395 142.503C241.22 141.545 242.231 140.8 243.428 140.268C244.626 139.736 246.049 139.47 247.699 139.47C249.375 139.47 250.825 139.802 252.049 140.468C253.273 141.133 254.257 142.011 255.002 143.102C255.747 144.166 256.266 145.323 256.559 146.574C256.878 147.824 257.011 148.982 256.958 150.046C256.958 150.286 256.945 150.525 256.918 150.764C256.918 151.004 256.905 151.243 256.878 151.483H241.273ZM253.526 148.529C253.472 146.747 252.914 145.297 251.849 144.179C250.785 143.062 249.362 142.503 247.579 142.503C246.594 142.503 245.73 142.663 244.985 142.982C244.24 143.301 243.614 143.74 243.109 144.299C242.603 144.858 242.204 145.51 241.912 146.255C241.619 146.973 241.433 147.731 241.353 148.529H253.526ZM274.669 144.339C274.696 143.567 274.709 142.796 274.709 142.024C274.709 141.252 274.709 140.481 274.709 139.709H289.636V157.789H292.39V167.208H289.117V160.742H273.751V167.208H270.479V157.789C271.543 157.789 272.381 157.31 272.993 156.352C273.366 155.82 273.658 155.062 273.871 154.077C274.084 153.066 274.244 152.002 274.35 150.884C274.483 149.66 274.563 148.45 274.59 147.252C274.643 146.028 274.669 145.057 274.669 144.339ZM286.243 142.703H277.942C277.915 143.82 277.889 145.071 277.862 146.454C277.836 147.838 277.782 149.128 277.703 150.325C277.676 150.858 277.636 151.443 277.583 152.082C277.53 152.694 277.436 153.332 277.303 153.997C277.197 154.636 277.024 155.288 276.785 155.953C276.572 156.618 276.266 157.23 275.867 157.789H286.243V142.703ZM309.782 158.068C309.329 158.68 308.811 159.172 308.225 159.545C307.64 159.917 307.028 160.21 306.389 160.423C305.777 160.636 305.152 160.782 304.514 160.862C303.902 160.942 303.29 160.982 302.678 160.982C301.693 160.982 300.762 160.862 299.884 160.622C299.006 160.383 298.208 159.997 297.489 159.465C296.797 158.933 296.239 158.268 295.813 157.47C295.414 156.671 295.214 155.767 295.214 154.756C295.214 153.558 295.427 152.56 295.853 151.762C296.305 150.937 296.904 150.272 297.649 149.767C298.394 149.261 299.245 148.915 300.203 148.729C301.188 148.516 302.225 148.41 303.316 148.41H309.502C309.502 146.627 309.117 145.217 308.345 144.179C307.573 143.115 306.27 142.556 304.434 142.503C303.316 142.503 302.332 142.689 301.48 143.062C300.629 143.434 300.044 144.046 299.724 144.898H296.092C296.279 143.94 296.651 143.128 297.21 142.463C297.769 141.771 298.434 141.213 299.205 140.787C299.977 140.334 300.815 140.002 301.72 139.789C302.624 139.576 303.529 139.47 304.434 139.47C306.004 139.47 307.321 139.736 308.385 140.268C309.476 140.773 310.354 141.452 311.019 142.303C311.684 143.128 312.15 144.139 312.416 145.337C312.682 146.534 312.815 147.878 312.815 149.368V160.742H309.981L309.782 158.068ZM305.791 151.243C305.152 151.243 304.407 151.257 303.556 151.283C302.731 151.283 301.933 151.363 301.161 151.523C300.389 151.682 299.764 152.015 299.285 152.521C298.833 153.026 298.607 153.691 298.607 154.516C298.607 155.128 298.727 155.647 298.966 156.073C299.205 156.498 299.525 156.858 299.924 157.15C300.35 157.443 300.828 157.656 301.361 157.789C301.893 157.922 302.438 157.988 302.997 157.988C304.993 157.988 306.562 157.509 307.706 156.552C308.877 155.567 309.476 154.144 309.502 152.281V151.243H305.791ZM320.465 144.339C320.492 143.567 320.505 142.796 320.505 142.024C320.505 141.252 320.505 140.481 320.505 139.709H335.432V157.789H338.186V167.208H334.913V160.742H319.547V167.208H316.275V157.789C317.339 157.789 318.177 157.31 318.789 156.352C319.162 155.82 319.454 155.062 319.667 154.077C319.88 153.066 320.04 152.002 320.146 150.884C320.279 149.66 320.359 148.45 320.386 147.252C320.439 146.028 320.465 145.057 320.465 144.339ZM332.04 142.703H323.738C323.712 143.82 323.685 145.071 323.658 146.454C323.632 147.838 323.578 149.128 323.499 150.325C323.472 150.858 323.432 151.443 323.379 152.082C323.326 152.694 323.233 153.332 323.1 153.997C322.993 154.636 322.82 155.288 322.581 155.953C322.368 156.618 322.062 157.23 321.663 157.789H332.04V142.703ZM345.041 160.742H341.729V139.709H345.121V155.833C345.308 155.461 345.56 155.062 345.88 154.636C346.199 154.184 346.452 153.838 346.638 153.598L356.815 139.709H360.168V160.742H356.775V144.618C356.562 145.017 356.323 145.403 356.057 145.776C355.817 146.122 355.591 146.428 355.378 146.694L345.041 160.742ZM365.504 139.709H370.054L376.878 150.246L383.583 139.709H388.053V160.742H384.701V143.461L377.278 155.354H376.32L368.856 143.461V160.742H365.504V139.709ZM413.427 139.47C415.103 139.47 416.553 139.736 417.777 140.268C419.001 140.8 420.025 141.545 420.85 142.503C421.702 143.461 422.327 144.605 422.726 145.935C423.152 147.239 423.364 148.676 423.364 150.246C423.364 151.815 423.152 153.266 422.726 154.596C422.327 155.9 421.702 157.03 420.85 157.988C420.025 158.92 418.988 159.651 417.737 160.183C416.487 160.716 415.023 160.982 413.347 160.982C411.671 160.982 410.207 160.716 408.957 160.183C407.733 159.651 406.695 158.92 405.844 157.988C405.019 157.03 404.394 155.9 403.968 154.596C403.569 153.266 403.369 151.815 403.369 150.246C403.369 148.676 403.569 147.239 403.968 145.935C404.394 144.605 405.019 143.461 405.844 142.503C406.695 141.545 407.746 140.8 408.997 140.268C410.247 139.736 411.724 139.47 413.427 139.47ZM413.347 157.988C414.491 157.988 415.475 157.789 416.3 157.39C417.152 156.991 417.844 156.445 418.376 155.753C418.934 155.035 419.334 154.21 419.573 153.279C419.839 152.348 419.972 151.337 419.972 150.246C419.972 149.181 419.839 148.184 419.573 147.252C419.334 146.294 418.934 145.47 418.376 144.778C417.844 144.059 417.152 143.501 416.3 143.102C415.475 142.703 414.491 142.503 413.347 142.503C412.203 142.503 411.218 142.703 410.393 143.102C409.569 143.501 408.877 144.059 408.318 144.778C407.786 145.47 407.387 146.294 407.121 147.252C406.881 148.184 406.762 149.181 406.762 150.246C406.762 151.337 406.881 152.348 407.121 153.279C407.387 154.21 407.786 155.035 408.318 155.753C408.877 156.445 409.569 156.991 410.393 157.39C411.218 157.789 412.203 157.988 413.347 157.988ZM436.883 160.982C435.207 160.982 433.757 160.716 432.533 160.183C431.309 159.651 430.298 158.906 429.5 157.948C428.702 156.991 428.103 155.86 427.704 154.556C427.305 153.252 427.105 151.829 427.105 150.286C427.105 148.796 427.318 147.399 427.744 146.095C428.169 144.765 428.795 143.62 429.62 142.663C430.444 141.678 431.482 140.907 432.733 140.348C433.983 139.762 435.5 139.47 437.282 139.47C438.347 139.47 439.291 139.589 440.116 139.829C440.941 140.042 441.713 140.401 442.431 140.907C443.176 141.385 443.815 142.024 444.347 142.822C444.879 143.62 445.265 144.592 445.504 145.736H442.032C441.633 144.565 440.994 143.727 440.116 143.221C439.265 142.716 438.254 142.476 437.083 142.503C435.939 142.503 434.928 142.729 434.05 143.181C433.198 143.607 432.506 144.179 431.974 144.898C431.469 145.616 431.096 146.454 430.857 147.412C430.617 148.343 430.498 149.301 430.498 150.286C430.498 151.323 430.617 152.308 430.857 153.239C431.123 154.17 431.509 154.995 432.014 155.713C432.546 156.405 433.225 156.964 434.05 157.39C434.874 157.789 435.859 157.988 437.003 157.988C437.562 157.988 438.107 157.935 438.639 157.829C439.198 157.722 439.704 157.549 440.156 157.31C440.635 157.044 441.047 156.698 441.393 156.272C441.739 155.846 441.992 155.328 442.152 154.716H445.664C445.451 155.807 445.065 156.751 444.506 157.549C443.974 158.321 443.309 158.973 442.511 159.505C441.713 160.01 440.835 160.383 439.877 160.622C438.919 160.862 437.921 160.982 436.883 160.982ZM465.489 139.709V142.703H458.265V160.742H454.873V142.703H447.649V139.709H465.489ZM482.365 158.068C481.912 158.68 481.394 159.172 480.808 159.545C480.223 159.917 479.611 160.21 478.972 160.423C478.36 160.636 477.735 160.782 477.097 160.862C476.485 160.942 475.873 160.982 475.261 160.982C474.276 160.982 473.345 160.862 472.467 160.622C471.589 160.383 470.791 159.997 470.072 159.465C469.38 158.933 468.822 158.268 468.396 157.47C467.997 156.671 467.797 155.767 467.797 154.756C467.797 153.558 468.01 152.56 468.436 151.762C468.888 150.937 469.487 150.272 470.232 149.767C470.977 149.261 471.828 148.915 472.786 148.729C473.771 148.516 474.808 148.41 475.899 148.41H482.085C482.085 146.627 481.7 145.217 480.928 144.179C480.156 143.115 478.853 142.556 477.017 142.503C475.899 142.503 474.915 142.689 474.063 143.062C473.212 143.434 472.627 144.046 472.307 144.898H468.675C468.862 143.94 469.234 143.128 469.793 142.463C470.352 141.771 471.017 141.213 471.788 140.787C472.56 140.334 473.398 140.002 474.303 139.789C475.207 139.576 476.112 139.47 477.017 139.47C478.587 139.47 479.904 139.736 480.968 140.268C482.059 140.773 482.937 141.452 483.602 142.303C484.267 143.128 484.733 144.139 484.999 145.337C485.265 146.534 485.398 147.878 485.398 149.368V160.742H482.564L482.365 158.068ZM478.374 151.243C477.735 151.243 476.99 151.257 476.139 151.283C475.314 151.283 474.516 151.363 473.744 151.523C472.972 151.682 472.347 152.015 471.868 152.521C471.416 153.026 471.19 153.691 471.19 154.516C471.19 155.128 471.31 155.647 471.549 156.073C471.788 156.498 472.108 156.858 472.507 157.15C472.933 157.443 473.411 157.656 473.944 157.789C474.476 157.922 475.021 157.988 475.58 157.988C477.576 157.988 479.145 157.509 480.289 156.552C481.46 155.567 482.059 154.144 482.085 152.281V151.243H478.374ZM490.654 160.742V139.709H494.046V148.929H504.583V139.709H507.975V160.742H504.583V151.922H494.046V160.742H490.654ZM522.597 139.47C524.273 139.47 525.723 139.736 526.947 140.268C528.171 140.8 529.195 141.545 530.02 142.503C530.872 143.461 531.497 144.605 531.896 145.935C532.322 147.239 532.535 148.676 532.535 150.246C532.535 151.815 532.322 153.266 531.896 154.596C531.497 155.9 530.872 157.03 530.02 157.988C529.195 158.92 528.158 159.651 526.907 160.183C525.657 160.716 524.193 160.982 522.517 160.982C520.841 160.982 519.377 160.716 518.127 160.183C516.903 159.651 515.865 158.92 515.014 157.988C514.189 157.03 513.564 155.9 513.138 154.596C512.739 153.266 512.539 151.815 512.539 150.246C512.539 148.676 512.739 147.239 513.138 145.935C513.564 144.605 514.189 143.461 515.014 142.503C515.865 141.545 516.916 140.8 518.167 140.268C519.417 139.736 520.894 139.47 522.597 139.47ZM522.517 157.988C523.661 157.988 524.646 157.789 525.47 157.39C526.322 156.991 527.014 156.445 527.546 155.753C528.104 155.035 528.504 154.21 528.743 153.279C529.009 152.348 529.142 151.337 529.142 150.246C529.142 149.181 529.009 148.184 528.743 147.252C528.504 146.294 528.104 145.47 527.546 144.778C527.014 144.059 526.322 143.501 525.47 143.102C524.646 142.703 523.661 142.503 522.517 142.503C521.373 142.503 520.388 142.703 519.564 143.102C518.739 143.501 518.047 144.059 517.488 144.778C516.956 145.47 516.557 146.294 516.291 147.252C516.051 148.184 515.932 149.181 515.932 150.246C515.932 151.337 516.051 152.348 516.291 153.279C516.557 154.21 516.956 155.035 517.488 155.753C518.047 156.445 518.739 156.991 519.564 157.39C520.388 157.789 521.373 157.988 522.517 157.988ZM537.073 139.709H545.215C546.572 139.709 547.73 139.802 548.688 139.989C549.672 140.175 550.497 140.507 551.162 140.986C551.747 141.385 552.2 141.918 552.519 142.583C552.865 143.248 553.038 144.033 553.038 144.938C553.038 147.039 552.093 148.543 550.204 149.447C551.641 149.767 552.679 150.392 553.317 151.323C553.956 152.254 554.275 153.319 554.275 154.516C554.248 155.634 554.062 156.552 553.716 157.27C553.37 157.962 552.878 158.574 552.24 159.106C551.628 159.611 550.869 160.01 549.965 160.303C549.06 160.596 548.036 160.742 546.892 160.742H537.073V139.709ZM540.546 142.703V148.689H543.459C544.124 148.689 544.803 148.676 545.495 148.649C546.186 148.596 546.798 148.476 547.331 148.29C547.996 148.077 548.554 147.731 549.007 147.252C549.459 146.773 549.699 146.201 549.725 145.536C549.725 144.765 549.552 144.206 549.206 143.86C548.887 143.487 548.488 143.221 548.009 143.062C547.53 142.875 547.011 142.769 546.453 142.742C545.894 142.716 545.375 142.703 544.896 142.703H540.546ZM540.546 157.789H546.093C546.705 157.789 547.291 157.749 547.849 157.669C548.435 157.589 548.94 157.443 549.366 157.23C549.792 156.991 550.138 156.671 550.404 156.272C550.67 155.873 550.816 155.368 550.843 154.756C550.843 153.957 550.656 153.332 550.284 152.88C549.911 152.401 549.406 152.055 548.767 151.842C548.235 151.682 547.637 151.589 546.971 151.563C546.306 151.536 545.614 151.523 544.896 151.523L540.546 151.563V157.789ZM562.212 160.742H558.9V139.709H562.292V155.833C562.478 155.461 562.731 155.062 563.05 154.636C563.37 154.184 563.622 153.838 563.809 153.598L573.986 139.709H577.338V160.742H573.946V144.618C573.733 145.017 573.494 145.403 573.228 145.776C572.988 146.122 572.762 146.428 572.549 146.694L562.212 160.742ZM598.2 139.709V142.703H590.976V160.742H587.584V142.703H580.36V139.709H598.2ZM601.227 139.709H604.699V147.731H609.329C610.526 147.731 611.63 147.824 612.641 148.011C613.653 148.17 614.531 148.516 615.276 149.048C615.994 149.58 616.539 150.259 616.912 151.084C617.311 151.882 617.511 152.88 617.511 154.077C617.484 155.274 617.271 156.272 616.872 157.07C616.473 157.842 615.967 158.494 615.355 159.026C614.637 159.638 613.732 160.077 612.641 160.343C611.577 160.609 610.486 160.742 609.369 160.742H601.227V139.709ZM606.695 157.789C607.706 157.789 608.717 157.775 609.728 157.749C610.739 157.696 611.617 157.483 612.362 157.11C612.868 156.897 613.267 156.538 613.559 156.033C613.879 155.501 614.052 154.889 614.078 154.197C614.078 153.372 613.905 152.72 613.559 152.241C613.24 151.762 612.814 151.416 612.282 151.204C611.777 150.964 611.205 150.818 610.566 150.764C609.927 150.711 609.302 150.685 608.69 150.685H604.699V157.789H606.695ZM630.903 160.982C629.227 160.982 627.776 160.716 626.553 160.183C625.329 159.651 624.318 158.906 623.519 157.948C622.721 156.991 622.122 155.86 621.723 154.556C621.324 153.252 621.125 151.829 621.125 150.286C621.125 148.796 621.338 147.399 621.763 146.095C622.189 144.765 622.814 143.62 623.639 142.663C624.464 141.678 625.502 140.907 626.752 140.348C628.003 139.762 629.519 139.47 631.302 139.47C632.366 139.47 633.311 139.589 634.136 139.829C634.96 140.042 635.732 140.401 636.45 140.907C637.195 141.385 637.834 142.024 638.366 142.822C638.898 143.62 639.284 144.592 639.524 145.736H636.051C635.652 144.565 635.014 143.727 634.136 143.221C633.284 142.716 632.273 142.476 631.102 142.503C629.958 142.503 628.947 142.729 628.069 143.181C627.218 143.607 626.526 144.179 625.994 144.898C625.488 145.616 625.116 146.454 624.876 147.412C624.637 148.343 624.517 149.301 624.517 150.286C624.517 151.323 624.637 152.308 624.876 153.239C625.142 154.17 625.528 154.995 626.034 155.713C626.566 156.405 627.244 156.964 628.069 157.39C628.894 157.789 629.878 157.988 631.023 157.988C631.581 157.988 632.127 157.935 632.659 157.829C633.218 157.722 633.723 157.549 634.175 157.31C634.654 157.044 635.067 156.698 635.413 156.272C635.759 155.846 636.011 155.328 636.171 154.716H639.683C639.47 155.807 639.085 156.751 638.526 157.549C637.994 158.321 637.328 158.973 636.53 159.505C635.732 160.01 634.854 160.383 633.896 160.622C632.938 160.862 631.94 160.982 630.903 160.982ZM659.947 160.742H656.555V152.96H651.726L646.617 160.742H642.666L648.134 152.441C646.617 152.015 645.433 151.323 644.582 150.365C643.73 149.381 643.278 148.077 643.225 146.454C643.198 145.044 643.411 143.913 643.863 143.062C644.342 142.184 644.967 141.479 645.739 140.946C646.484 140.414 647.349 140.082 648.333 139.949C649.318 139.789 650.369 139.709 651.486 139.709H659.947V160.742ZM656.555 142.703L652.045 142.663C651.38 142.663 650.701 142.689 650.009 142.742C649.344 142.796 648.746 142.969 648.213 143.261C647.761 143.527 647.389 143.913 647.096 144.419C646.83 144.898 646.684 145.523 646.657 146.294C646.684 147.013 646.857 147.625 647.176 148.13C647.495 148.609 647.947 148.995 648.533 149.288C649.304 149.66 650.156 149.873 651.087 149.926C652.045 149.98 653.029 150.006 654.04 150.006H656.555V142.703Z" fill="white"/>
</svg>
