<svg width="668" height="170" viewBox="0 0 668 170" fill="none" xmlns="http://www.w3.org/2000/svg">
<path d="M43.2108 84.9829C44.0751 84.9829 44.7473 85.7301 44.7001 86.5931C44.6659 87.2193 44.6485 87.85 44.6485 88.4848C44.6485 107.341 59.9349 122.628 78.7917 122.628C97.6484 122.628 112.935 107.341 112.935 88.4848C112.935 87.85 112.917 87.2193 112.883 86.5931C112.836 85.7301 113.508 84.9829 114.373 84.9829H147.37C149.304 84.9829 150.872 86.5508 150.872 88.4848V105.702C150.872 107.636 149.304 109.204 147.37 109.204H136.483C134.471 114.807 131.665 120.031 128.202 124.743L138.285 137.658C139.386 139.068 139.247 141.081 137.962 142.327L123.083 156.759C121.794 158.009 119.768 158.082 118.393 156.927L103.626 144.526C100.084 146.098 96.365 147.344 92.5073 148.226V165.526C92.5073 167.943 90.5475 169.903 88.13 169.903H68.5779C66.1604 169.903 64.2006 167.943 64.2006 165.526V148.019C60.5518 147.128 57.0312 145.91 53.6714 144.398L38.7526 156.927C37.3774 158.082 35.3513 158.009 34.0623 156.759L19.1831 142.327C17.899 141.081 17.76 139.068 18.8608 137.658L29.1698 124.453C25.8039 119.818 23.0715 114.692 21.1002 109.204H9.92178C7.98776 109.204 6.41992 107.636 6.41992 105.702V88.4848C6.41992 86.5508 7.98776 84.9829 9.92178 84.9829H43.2108Z" fill="#133965"/>
<path fill-rule="evenodd" clip-rule="evenodd" d="M78.5 0C96.6106 1.36147e-06 113.979 7.16368 126.786 19.9151C138.482 31.5615 145.497 46.9977 146.625 63.3252H151.164C154.387 63.3252 157 65.9382 157 69.1616V75.8735C157 77.1628 155.955 78.2081 154.665 78.2081H2.33457C1.04522 78.2081 4.46532e-08 77.1628 0 75.8735V69.1616C0 65.9382 2.61306 63.3252 5.83643 63.3252H10.3751C11.5031 46.9977 18.518 31.5615 30.2144 19.9151C43.0205 7.16368 60.3894 -1.96201e-09 78.5 0ZM78.6459 14.0074C75.342 14.0074 72.6636 16.6858 72.6636 19.9897V44.7945C72.6636 48.0985 75.342 50.7769 78.6459 50.7769C81.9499 50.7769 84.6283 48.0985 84.6283 44.7945V19.9897C84.6283 16.6858 81.9499 14.0074 78.6459 14.0074Z" fill="#AC182C"/>
<path d="M192.1 87.7843V39.6403H210.868C214.54 39.6403 217.736 40.2069 220.456 41.3403C223.221 42.4283 225.352 44.1963 226.848 46.6443C228.344 49.0469 229.092 52.2656 229.092 56.3003C229.092 60.0629 228.253 63.2136 226.576 65.7523C224.944 68.2909 222.7 70.1949 219.844 71.4643C216.988 72.6883 213.747 73.3003 210.12 73.3003H201.824V87.7843H192.1ZM201.824 64.5963H209.984C212.885 64.5963 215.175 63.9163 216.852 62.5563C218.575 61.1509 219.436 59.0429 219.436 56.2323C219.436 53.6936 218.711 51.8123 217.26 50.5883C215.855 49.3189 213.588 48.6843 210.46 48.6843H201.824V64.5963ZM258.137 88.3283C253.196 88.3283 248.934 87.2856 245.353 85.2003C241.817 83.1149 239.097 80.2363 237.193 76.5643C235.334 72.8469 234.405 68.5856 234.405 63.7803C234.405 58.8843 235.357 54.5776 237.261 50.8603C239.21 47.1429 241.976 44.2643 245.557 42.2243C249.138 40.1389 253.4 39.0963 258.341 39.0963C263.237 39.0963 267.453 40.1163 270.989 42.1563C274.525 44.1963 277.245 47.0523 279.149 50.7243C281.098 54.3963 282.073 58.6803 282.073 63.5763C282.073 68.3816 281.098 72.6656 279.149 76.4283C277.245 80.1456 274.502 83.0696 270.921 85.2003C267.385 87.2856 263.124 88.3283 258.137 88.3283ZM258.273 79.2163C261.537 79.2163 264.189 78.4683 266.229 76.9723C268.269 75.4763 269.742 73.5496 270.649 71.1923C271.601 68.8349 272.077 66.3643 272.077 63.7803C272.077 61.8763 271.805 59.9949 271.261 58.1363C270.762 56.2776 269.969 54.6003 268.881 53.1043C267.793 51.6083 266.365 50.4296 264.597 49.5683C262.829 48.6616 260.698 48.2083 258.205 48.2083C254.986 48.2083 252.357 48.9563 250.317 50.4523C248.277 51.9029 246.758 53.8069 245.761 56.1643C244.809 58.5216 244.333 61.0376 244.333 63.7123C244.333 66.3869 244.809 68.9029 245.761 71.2603C246.758 73.6176 248.277 75.5443 250.317 77.0403C252.402 78.4909 255.054 79.2163 258.273 79.2163ZM289.651 87.7843V39.6403H325.079V48.6843H299.375V58.2723H309.779C312.136 58.2723 314.38 58.4763 316.511 58.8843C318.641 59.2469 320.545 59.9269 322.223 60.9243C323.9 61.8763 325.215 63.2589 326.167 65.0723C327.164 66.8856 327.663 69.1976 327.663 72.0083C327.663 75.0909 327.096 77.6523 325.963 79.6923C324.875 81.7323 323.401 83.3643 321.543 84.5883C319.729 85.7669 317.644 86.6056 315.287 87.1043C312.975 87.5576 310.595 87.7843 308.147 87.7843H289.651ZM299.375 78.8083H308.351C309.484 78.8083 310.617 78.7403 311.751 78.6043C312.929 78.4229 313.972 78.1283 314.879 77.7203C315.785 77.3123 316.511 76.7003 317.055 75.8843C317.644 75.0229 317.939 73.8896 317.939 72.4843C317.939 71.2149 317.689 70.2176 317.191 69.4923C316.737 68.7216 316.08 68.1549 315.219 67.7923C314.357 67.3843 313.36 67.1123 312.227 66.9763C311.139 66.8403 309.983 66.7723 308.759 66.7723H299.375V78.8083ZM356.75 88.3283C351.809 88.3283 347.548 87.2856 343.966 85.2003C340.43 83.1149 337.71 80.2363 335.806 76.5643C333.948 72.8469 333.018 68.5856 333.018 63.7803C333.018 58.8843 333.97 54.5776 335.874 50.8603C337.824 47.1429 340.589 44.2643 344.17 42.2243C347.752 40.1389 352.013 39.0963 356.954 39.0963C361.85 39.0963 366.066 40.1163 369.602 42.1563C373.138 44.1963 375.858 47.0523 377.762 50.7243C379.712 54.3963 380.686 58.6803 380.686 63.5763C380.686 68.3816 379.712 72.6656 377.762 76.4283C375.858 80.1456 373.116 83.0696 369.534 85.2003C365.998 87.2856 361.737 88.3283 356.75 88.3283ZM356.886 79.2163C360.15 79.2163 362.802 78.4683 364.842 76.9723C366.882 75.4763 368.356 73.5496 369.262 71.1923C370.214 68.8349 370.69 66.3643 370.69 63.7803C370.69 61.8763 370.418 59.9949 369.874 58.1363C369.376 56.2776 368.582 54.6003 367.494 53.1043C366.406 51.6083 364.978 50.4296 363.21 49.5683C361.442 48.6616 359.312 48.2083 356.818 48.2083C353.6 48.2083 350.97 48.9563 348.93 50.4523C346.89 51.9029 345.372 53.8069 344.374 56.1643C343.422 58.5216 342.946 61.0376 342.946 63.7123C342.946 66.3869 343.422 68.9029 344.374 71.2603C345.372 73.6176 346.89 75.5443 348.93 77.0403C351.016 78.4909 353.668 79.2163 356.886 79.2163ZM388.264 87.7843V39.6403H401.116L414.104 62.8963L426.888 39.6403H439.332V87.7843H429.54V52.5603L415.872 77.0403H411.86L397.988 52.5603V87.7843H388.264ZM444.525 87.7843L463.293 39.6403H474.173L492.737 87.7843H482.265L479.273 79.5563H457.989L454.997 87.7843H444.525ZM461.117 70.7843H476.213L468.733 49.9763L461.117 70.7843ZM517.441 88.3283C512.499 88.3283 508.283 87.3309 504.793 85.3363C501.347 83.2963 498.718 80.4403 496.905 76.7683C495.137 73.0963 494.253 68.8123 494.253 63.9163C494.253 58.9296 495.159 54.5776 496.973 50.8603C498.831 47.1429 501.483 44.2643 504.929 42.2243C508.374 40.1389 512.522 39.0963 517.373 39.0963C521.045 39.0963 524.331 39.7309 527.233 41.0003C530.134 42.2243 532.469 44.0603 534.237 46.5083C536.05 48.9109 537.183 51.8803 537.637 55.4163H528.253C527.663 53.1949 526.462 51.4496 524.649 50.1803C522.881 48.8656 520.523 48.2083 517.577 48.2083C514.313 48.2083 511.706 48.9563 509.757 50.4523C507.853 51.9029 506.47 53.8069 505.609 56.1643C504.747 58.4763 504.317 60.9243 504.317 63.5083C504.317 66.1829 504.77 68.7216 505.677 71.1243C506.583 73.5269 508.011 75.4763 509.961 76.9723C511.955 78.4683 514.562 79.2163 517.781 79.2163C519.685 79.2163 521.385 78.9443 522.881 78.4003C524.377 77.8109 525.601 76.9723 526.553 75.8843C527.55 74.7963 528.23 73.5043 528.593 72.0083H538.317C537.909 75.4989 536.73 78.4683 534.781 80.9163C532.831 83.3643 530.361 85.2229 527.369 86.4923C524.377 87.7163 521.067 88.3283 517.441 88.3283ZM555.382 87.7843V48.6843H540.694V39.6403H579.93V48.6843H565.174V87.7843H555.382ZM585.623 87.7843V39.6403H620.303V48.6843H595.347V59.5643H616.767V68.2683H595.347V78.8083H620.303V87.7843H585.623ZM627.858 87.7843V39.6403H646.626C650.298 39.6403 653.494 40.2069 656.214 41.3403C658.979 42.4283 661.11 44.1963 662.606 46.6443C664.102 49.0469 664.85 52.2656 664.85 56.3003C664.85 60.0629 664.011 63.2136 662.334 65.7523C660.702 68.2909 658.458 70.1949 655.602 71.4643C652.746 72.6883 649.504 73.3003 645.878 73.3003H637.582V87.7843H627.858ZM637.582 64.5963H645.742C648.643 64.5963 650.932 63.9163 652.61 62.5563C654.332 61.1509 655.194 59.0429 655.194 56.2323C655.194 53.6936 654.468 51.8123 653.018 50.5883C651.612 49.3189 649.346 48.6843 646.218 48.6843H637.582V64.5963Z" fill="#0B213E"/>
<path d="M189.345 140.784V122.339H192.32V130.424H201.56V122.339H204.535V140.784H201.56V133.049H192.32V140.784H189.345ZM217.218 140.994C215.258 140.994 213.636 140.598 212.353 139.804C211.069 138.988 210.113 137.868 209.483 136.444C208.853 135.021 208.538 133.399 208.538 131.579C208.538 129.736 208.864 128.114 209.518 126.714C210.194 125.291 211.174 124.171 212.458 123.354C213.741 122.538 215.316 122.129 217.183 122.129C218.559 122.129 219.761 122.398 220.788 122.934C221.838 123.448 222.701 124.148 223.378 125.034C224.078 125.921 224.579 126.913 224.883 128.009C225.209 129.106 225.349 130.238 225.303 131.404C225.279 131.614 225.268 131.824 225.268 132.034C225.268 132.244 225.256 132.454 225.233 132.664H211.548C211.641 133.738 211.909 134.706 212.353 135.569C212.796 136.433 213.426 137.121 214.243 137.634C215.059 138.124 216.074 138.369 217.288 138.369C217.894 138.369 218.501 138.299 219.108 138.159C219.738 137.996 220.298 137.728 220.788 137.354C221.301 136.981 221.663 136.479 221.873 135.849H224.918C224.638 137.039 224.113 138.019 223.343 138.789C222.573 139.536 221.651 140.096 220.578 140.469C219.504 140.819 218.384 140.994 217.218 140.994ZM211.618 130.074H222.293C222.269 129.024 222.036 128.103 221.593 127.309C221.149 126.516 220.543 125.898 219.773 125.454C219.026 125.011 218.128 124.789 217.078 124.789C215.934 124.789 214.966 125.034 214.173 125.524C213.403 126.014 212.808 126.656 212.388 127.449C211.968 128.243 211.711 129.118 211.618 130.074ZM237.16 146.454V138.194C237.836 138.194 238.373 138.008 238.77 137.634C239.19 137.261 239.516 136.771 239.75 136.164C239.983 135.558 240.158 134.904 240.275 134.204C240.391 133.481 240.485 132.793 240.555 132.139C240.671 131.066 240.741 130.004 240.765 128.954C240.811 127.881 240.835 127.029 240.835 126.399C240.858 125.723 240.87 125.046 240.87 124.369C240.87 123.693 240.87 123.016 240.87 122.339H253.96V138.194H256.375V146.454H253.505V140.784H240.03V146.454H237.16ZM241.885 138.194H250.985V124.964H243.705C243.681 125.944 243.658 127.041 243.635 128.254C243.611 129.468 243.565 130.599 243.495 131.649C243.471 132.256 243.413 132.944 243.32 133.714C243.25 134.484 243.11 135.266 242.9 136.059C242.69 136.829 242.351 137.541 241.885 138.194ZM265.397 140.994C264.557 140.994 263.74 140.889 262.947 140.679C262.177 140.446 261.477 140.108 260.847 139.664C260.24 139.198 259.75 138.626 259.377 137.949C259.027 137.249 258.852 136.444 258.852 135.534C258.852 134.484 259.038 133.598 259.412 132.874C259.808 132.151 260.333 131.579 260.987 131.159C261.64 130.739 262.398 130.436 263.262 130.249C264.125 130.063 265.023 129.969 265.957 129.969H271.382C271.382 128.919 271.23 128.009 270.927 127.239C270.647 126.469 270.18 125.874 269.527 125.454C268.873 125.011 268.01 124.789 266.937 124.789C266.283 124.789 265.677 124.859 265.117 124.999C264.557 125.139 264.078 125.361 263.682 125.664C263.285 125.968 262.993 126.376 262.807 126.889H259.622C259.785 126.049 260.1 125.338 260.567 124.754C261.057 124.148 261.64 123.658 262.317 123.284C263.017 122.888 263.763 122.596 264.557 122.409C265.35 122.223 266.143 122.129 266.937 122.129C268.71 122.129 270.133 122.491 271.207 123.214C272.28 123.914 273.062 124.918 273.552 126.224C274.042 127.508 274.287 129.036 274.287 130.809V140.784H271.802L271.627 138.439C271.113 139.139 270.495 139.676 269.772 140.049C269.048 140.423 268.302 140.668 267.532 140.784C266.785 140.924 266.073 140.994 265.397 140.994ZM265.677 138.369C266.843 138.369 267.847 138.183 268.687 137.809C269.55 137.413 270.215 136.841 270.682 136.094C271.148 135.348 271.382 134.438 271.382 133.364V132.454H268.127C267.357 132.454 266.598 132.466 265.852 132.489C265.105 132.513 264.428 132.606 263.822 132.769C263.215 132.933 262.725 133.213 262.352 133.609C262.002 134.006 261.827 134.578 261.827 135.324C261.827 136.024 262.002 136.596 262.352 137.039C262.725 137.483 263.203 137.821 263.787 138.054C264.393 138.264 265.023 138.369 265.677 138.369ZM277.321 146.454V138.194C277.997 138.194 278.534 138.008 278.931 137.634C279.351 137.261 279.677 136.771 279.911 136.164C280.144 135.558 280.319 134.904 280.436 134.204C280.552 133.481 280.646 132.793 280.716 132.139C280.832 131.066 280.902 130.004 280.926 128.954C280.972 127.881 280.996 127.029 280.996 126.399C281.019 125.723 281.031 125.046 281.031 124.369C281.031 123.693 281.031 123.016 281.031 122.339H294.121V138.194H296.536V146.454H293.666V140.784H280.191V146.454H277.321ZM282.046 138.194H291.146V124.964H283.866C283.842 125.944 283.819 127.041 283.796 128.254C283.772 129.468 283.726 130.599 283.656 131.649C283.632 132.256 283.574 132.944 283.481 133.714C283.411 134.484 283.271 135.266 283.061 136.059C282.851 136.829 282.512 137.541 282.046 138.194ZM299.643 140.784V122.339H302.618V136.479C302.781 136.153 303.003 135.803 303.283 135.429C303.563 135.033 303.785 134.729 303.948 134.519L312.873 122.339H315.813V140.784H312.838V126.644C312.651 126.994 312.441 127.321 312.208 127.624C311.998 127.928 311.8 128.208 311.613 128.464L302.548 140.784H299.643ZM320.492 140.784V122.339H324.482L330.467 131.579L336.347 122.339H340.267V140.784H337.327V125.629L330.817 136.059H329.977L323.432 125.629V140.784H320.492ZM362.449 140.994C360.512 140.994 358.89 140.598 357.584 139.804C356.277 138.988 355.297 137.868 354.644 136.444C354.014 135.021 353.699 133.399 353.699 131.579C353.699 129.736 354.014 128.114 354.644 126.714C355.297 125.291 356.277 124.171 357.584 123.354C358.89 122.538 360.535 122.129 362.519 122.129C364.455 122.129 366.065 122.538 367.349 123.354C368.655 124.171 369.624 125.291 370.254 126.714C370.907 128.114 371.234 129.736 371.234 131.579C371.234 133.399 370.907 135.021 370.254 136.444C369.6 137.868 368.62 138.988 367.314 139.804C366.03 140.598 364.409 140.994 362.449 140.994ZM362.449 138.369C363.802 138.369 364.899 138.066 365.739 137.459C366.602 136.853 367.232 136.036 367.629 135.009C368.049 133.983 368.259 132.839 368.259 131.579C368.259 130.319 368.049 129.176 367.629 128.149C367.232 127.123 366.602 126.306 365.739 125.699C364.899 125.093 363.802 124.789 362.449 124.789C361.119 124.789 360.022 125.093 359.159 125.699C358.319 126.306 357.689 127.123 357.269 128.149C356.872 129.176 356.674 130.319 356.674 131.579C356.674 132.839 356.872 133.983 357.269 135.009C357.689 136.036 358.319 136.853 359.159 137.459C360.022 138.066 361.119 138.369 362.449 138.369ZM383.089 140.994C381.152 140.994 379.542 140.598 378.259 139.804C376.999 138.988 376.054 137.868 375.424 136.444C374.817 135.021 374.514 133.411 374.514 131.614C374.514 129.864 374.829 128.278 375.459 126.854C376.112 125.408 377.092 124.264 378.399 123.424C379.729 122.561 381.409 122.129 383.439 122.129C384.699 122.129 385.819 122.339 386.799 122.759C387.802 123.179 388.631 123.798 389.284 124.614C389.937 125.408 390.392 126.411 390.649 127.624H387.604C387.254 126.598 386.694 125.874 385.924 125.454C385.177 125.011 384.291 124.789 383.264 124.789C381.864 124.789 380.744 125.116 379.904 125.769C379.064 126.423 378.446 127.274 378.049 128.324C377.676 129.351 377.489 130.448 377.489 131.614C377.489 132.828 377.687 133.948 378.084 134.974C378.481 136.001 379.099 136.829 379.939 137.459C380.779 138.066 381.864 138.369 383.194 138.369C384.174 138.369 385.096 138.159 385.959 137.739C386.846 137.319 387.429 136.573 387.709 135.499H390.789C390.556 136.759 390.054 137.798 389.284 138.614C388.537 139.431 387.616 140.038 386.519 140.434C385.446 140.808 384.302 140.994 383.089 140.994ZM398.865 140.784V124.964H392.53V122.339H408.175V124.964H401.84V140.784H398.865ZM416.744 140.994C415.904 140.994 415.088 140.889 414.294 140.679C413.524 140.446 412.824 140.108 412.194 139.664C411.588 139.198 411.098 138.626 410.724 137.949C410.374 137.249 410.199 136.444 410.199 135.534C410.199 134.484 410.386 133.598 410.759 132.874C411.156 132.151 411.681 131.579 412.334 131.159C412.988 130.739 413.746 130.436 414.609 130.249C415.473 130.063 416.371 129.969 417.304 129.969H422.729C422.729 128.919 422.578 128.009 422.274 127.239C421.994 126.469 421.528 125.874 420.874 125.454C420.221 125.011 419.358 124.789 418.284 124.789C417.631 124.789 417.024 124.859 416.464 124.999C415.904 125.139 415.426 125.361 415.029 125.664C414.633 125.968 414.341 126.376 414.154 126.889H410.969C411.133 126.049 411.448 125.338 411.914 124.754C412.404 124.148 412.988 123.658 413.664 123.284C414.364 122.888 415.111 122.596 415.904 122.409C416.698 122.223 417.491 122.129 418.284 122.129C420.058 122.129 421.481 122.491 422.554 123.214C423.628 123.914 424.409 124.918 424.899 126.224C425.389 127.508 425.634 129.036 425.634 130.809V140.784H423.149L422.974 138.439C422.461 139.139 421.843 139.676 421.119 140.049C420.396 140.423 419.649 140.668 418.879 140.784C418.133 140.924 417.421 140.994 416.744 140.994ZM417.024 138.369C418.191 138.369 419.194 138.183 420.034 137.809C420.898 137.413 421.563 136.841 422.029 136.094C422.496 135.348 422.729 134.438 422.729 133.364V132.454H419.474C418.704 132.454 417.946 132.466 417.199 132.489C416.453 132.513 415.776 132.606 415.169 132.769C414.563 132.933 414.073 133.213 413.699 133.609C413.349 134.006 413.174 134.578 413.174 135.324C413.174 136.024 413.349 136.596 413.699 137.039C414.073 137.483 414.551 137.821 415.134 138.054C415.741 138.264 416.371 138.369 417.024 138.369ZM430.243 140.784V122.339H433.218V130.424H442.458V122.339H445.433V140.784H442.458V133.049H433.218V140.784H430.243ZM458.186 140.994C456.249 140.994 454.628 140.598 453.321 139.804C452.014 138.988 451.034 137.868 450.381 136.444C449.751 135.021 449.436 133.399 449.436 131.579C449.436 129.736 449.751 128.114 450.381 126.714C451.034 125.291 452.014 124.171 453.321 123.354C454.628 122.538 456.273 122.129 458.256 122.129C460.193 122.129 461.803 122.538 463.086 123.354C464.393 124.171 465.361 125.291 465.991 126.714C466.644 128.114 466.971 129.736 466.971 131.579C466.971 133.399 466.644 135.021 465.991 136.444C465.338 137.868 464.358 138.988 463.051 139.804C461.768 140.598 460.146 140.994 458.186 140.994ZM458.186 138.369C459.539 138.369 460.636 138.066 461.476 137.459C462.339 136.853 462.969 136.036 463.366 135.009C463.786 133.983 463.996 132.839 463.996 131.579C463.996 130.319 463.786 129.176 463.366 128.149C462.969 127.123 462.339 126.306 461.476 125.699C460.636 125.093 459.539 124.789 458.186 124.789C456.856 124.789 455.759 125.093 454.896 125.699C454.056 126.306 453.426 127.123 453.006 128.149C452.609 129.176 452.411 130.319 452.411 131.579C452.411 132.839 452.609 133.983 453.006 135.009C453.426 136.036 454.056 136.853 454.896 137.459C455.759 138.066 456.856 138.369 458.186 138.369ZM470.951 140.784V122.339H478.091C478.908 122.339 479.713 122.398 480.506 122.514C481.323 122.608 482.058 122.818 482.711 123.144C483.388 123.448 483.925 123.903 484.321 124.509C484.741 125.116 484.951 125.921 484.951 126.924C484.951 127.531 484.858 128.091 484.671 128.604C484.485 129.094 484.205 129.526 483.831 129.899C483.481 130.273 483.026 130.599 482.466 130.879C483.726 131.159 484.636 131.708 485.196 132.524C485.756 133.341 486.036 134.274 486.036 135.324C486.036 136.258 485.861 137.074 485.511 137.774C485.185 138.451 484.718 139.011 484.111 139.454C483.528 139.898 482.84 140.236 482.046 140.469C481.276 140.679 480.448 140.784 479.561 140.784H470.951ZM473.996 138.194H478.861C479.585 138.194 480.261 138.124 480.891 137.984C481.521 137.844 482.035 137.588 482.431 137.214C482.828 136.818 483.026 136.258 483.026 135.534C483.026 134.788 482.851 134.228 482.501 133.854C482.175 133.458 481.743 133.189 481.206 133.049C480.693 132.886 480.133 132.793 479.526 132.769C478.92 132.746 478.348 132.734 477.811 132.734H473.996V138.194ZM473.996 130.214H476.551C477.018 130.214 477.555 130.191 478.161 130.144C478.791 130.098 479.398 129.993 479.981 129.829C480.588 129.643 481.078 129.363 481.451 128.989C481.848 128.616 482.046 128.103 482.046 127.449C482.046 126.586 481.801 125.991 481.311 125.664C480.845 125.314 480.285 125.116 479.631 125.069C478.978 124.999 478.371 124.964 477.811 124.964H473.996V130.214ZM490.092 140.784V122.339H493.067V136.479C493.23 136.153 493.452 135.803 493.732 135.429C494.012 135.033 494.234 134.729 494.397 134.519L503.322 122.339H506.262V140.784H503.287V126.644C503.1 126.994 502.89 127.321 502.657 127.624C502.447 127.928 502.249 128.208 502.062 128.464L492.997 140.784H490.092ZM515.247 140.784V124.964H508.912V122.339H524.557V124.964H518.222V140.784H515.247ZM527.211 140.784V122.339H530.256V129.374H534.316C535.413 129.374 536.393 129.468 537.256 129.654C538.143 129.818 538.901 130.109 539.531 130.529C540.161 130.949 540.64 131.521 540.966 132.244C541.316 132.944 541.491 133.843 541.491 134.939C541.491 135.943 541.316 136.818 540.966 137.564C540.616 138.288 540.126 138.894 539.496 139.384C538.866 139.851 538.108 140.201 537.221 140.434C536.358 140.668 535.401 140.784 534.351 140.784H527.211ZM530.256 138.194H532.006C532.823 138.194 533.605 138.171 534.351 138.124C535.121 138.078 535.821 137.961 536.451 137.774C537.081 137.588 537.571 137.284 537.921 136.864C538.295 136.421 538.481 135.814 538.481 135.044C538.481 134.298 538.33 133.726 538.026 133.329C537.746 132.909 537.373 132.606 536.906 132.419C536.44 132.209 535.926 132.081 535.366 132.034C534.83 131.988 534.293 131.964 533.756 131.964H530.256V138.194ZM553.236 140.994C551.299 140.994 549.689 140.598 548.406 139.804C547.146 138.988 546.201 137.868 545.571 136.444C544.964 135.021 544.661 133.411 544.661 131.614C544.661 129.864 544.976 128.278 545.606 126.854C546.259 125.408 547.239 124.264 548.546 123.424C549.876 122.561 551.556 122.129 553.586 122.129C554.846 122.129 555.966 122.339 556.946 122.759C557.949 123.179 558.777 123.798 559.431 124.614C560.084 125.408 560.539 126.411 560.796 127.624H557.751C557.401 126.598 556.841 125.874 556.071 125.454C555.324 125.011 554.437 124.789 553.411 124.789C552.011 124.789 550.891 125.116 550.051 125.769C549.211 126.423 548.592 127.274 548.196 128.324C547.822 129.351 547.636 130.448 547.636 131.614C547.636 132.828 547.834 133.948 548.231 134.974C548.627 136.001 549.246 136.829 550.086 137.459C550.926 138.066 552.011 138.369 553.341 138.369C554.321 138.369 555.242 138.159 556.106 137.739C556.992 137.319 557.576 136.573 557.856 135.499H560.936C560.702 136.759 560.201 137.798 559.431 138.614C558.684 139.431 557.762 140.038 556.666 140.434C555.592 140.808 554.449 140.994 553.236 140.994ZM563.551 140.784L568.346 133.504C567.016 133.131 565.966 132.524 565.196 131.684C564.426 130.821 564.041 129.678 564.041 128.254C564.041 127.134 564.205 126.201 564.531 125.454C564.858 124.684 565.336 124.078 565.966 123.634C566.596 123.168 567.355 122.841 568.241 122.654C569.128 122.444 570.143 122.339 571.286 122.339H578.706V140.784H575.731V133.959H571.496L567.016 140.784H563.551ZM573.526 131.369H575.731V124.964H571.776C571.076 124.964 570.435 124.999 569.851 125.069C569.268 125.139 568.766 125.291 568.346 125.524C567.95 125.734 567.635 126.049 567.401 126.469C567.168 126.866 567.051 127.414 567.051 128.114C567.051 128.884 567.238 129.491 567.611 129.934C568.008 130.378 568.51 130.704 569.116 130.914C569.746 131.101 570.446 131.229 571.216 131.299C571.986 131.346 572.756 131.369 573.526 131.369Z" fill="#0B213E"/>
</svg>
