<svg width="243" height="263" viewBox="0 0 243 263" fill="none" xmlns="http://www.w3.org/2000/svg">
<path d="M66.6192 131.151C67.9517 131.151 68.988 132.304 68.9153 133.636C68.8626 134.602 68.8358 135.576 68.8358 136.555C68.8358 165.656 92.4031 189.247 121.475 189.247C150.547 189.247 174.114 165.656 174.114 136.555C174.114 135.576 174.087 134.602 174.035 133.636C173.962 132.304 174.998 131.151 176.331 131.151H227.203C230.185 131.151 232.602 133.57 232.602 136.555V163.126C232.602 166.111 230.185 168.53 227.203 168.53H210.419C207.316 177.177 202.99 185.24 197.651 192.51L213.197 212.442C214.894 214.618 214.679 217.725 212.7 219.647L189.76 241.919C187.773 243.849 184.649 243.961 182.529 242.179L159.763 223.041C154.302 225.467 148.568 227.39 142.621 228.751V255.449C142.621 259.18 139.599 262.204 135.872 262.204H105.728C102.001 262.204 98.9796 259.18 98.9796 255.449V228.432C93.3542 227.057 87.9264 225.177 82.7465 222.844L59.7458 242.179C57.6257 243.961 54.5021 243.849 52.5148 241.919L29.5753 219.647C27.5956 217.725 27.3812 214.618 29.0784 212.442L44.9719 192.064C39.7826 184.91 35.5701 177 32.5309 168.53H15.2969C12.3152 168.53 9.89801 166.111 9.89801 163.126V136.555C9.89801 133.57 12.3152 131.151 15.2969 131.151H66.6192Z" fill="#003D6A"/>
<path fill-rule="evenodd" clip-rule="evenodd" d="M121.025 0C148.947 2.1011e-06 175.724 11.0554 195.468 30.7341C213.5 48.7074 224.315 72.5296 226.055 97.727H233.052C238.021 97.727 242.05 101.76 242.05 106.734V117.092C242.05 119.082 240.439 120.695 238.451 120.695H3.59932C1.6115 120.695 6.1104e-05 119.082 6.10352e-05 117.092V106.734C6.10352e-05 101.76 4.02867 97.727 8.9982 97.727H15.9955C17.7346 72.5296 28.5496 48.7074 46.5821 30.7341C66.3256 11.0554 93.1035 -3.02789e-09 121.025 0ZM121.25 21.617C116.156 21.617 112.027 25.7505 112.027 30.8493V69.1295C112.027 74.2283 116.156 78.3617 121.25 78.3617C126.344 78.3617 130.473 74.2283 130.473 69.1295V30.8493C130.473 25.7505 126.344 21.617 121.25 21.617Z" fill="#003D6A"/>
</svg>
